<?xml version="1.0" encoding="utf-8"?>
<svg version="1.1" xmlns:xlink="http://www.w3.org/1999/xlink" width="12px" height="12px" viewBox="255 333.5  12 12" xmlns="http://www.w3.org/2000/svg">
  <path d="M 261 333.5  C 264.36 333.5  267 336.14  267 339.5  C 267 342.86  264.36 345.5  261 345.5  C 257.64 345.5  255 342.86  255 339.5  C 255 336.14  257.64 333.5  261 333.5  Z " fill-rule="nonzero" fill="#ffffff" stroke="none" />
  <path d="M 261 334  C 264.08 334  266.5 336.42  266.5 339.5  C 266.5 342.58  264.08 345  261 345  C 257.92 345  255.5 342.58  255.5 339.5  C 255.5 336.42  257.92 334  261 334  Z " stroke-width="1" stroke="#797979" fill="none" />
  <path d="M 261 342.5  C 259.32 342.5  258 341.18  258 339.5  C 258 337.82  259.32 336.5  261 336.5  C 262.68 336.5  264 337.82  264 339.5  C 264 341.18  262.68 342.5  261 342.5  " fill-rule="nonzero" fill="#797979" stroke="none" />
</svg>