<?xml version="1.0" encoding="utf-8"?>
<svg version="1.1" xmlns:xlink="http://www.w3.org/1999/xlink" width="12px" height="12px" viewBox="164 752.5  12 12" xmlns="http://www.w3.org/2000/svg">
  <path d="M 170 752.5  C 173.36 752.5  176 755.14  176 758.5  C 176 761.86  173.36 764.5  170 764.5  C 166.64 764.5  164 761.86  164 758.5  C 164 755.14  166.64 752.5  170 752.5  Z " fill-rule="nonzero" fill="#ffffff" stroke="none" />
  <path d="M 170 753  C 173.08 753  175.5 755.42  175.5 758.5  C 175.5 761.58  173.08 764  170 764  C 166.92 764  164.5 761.58  164.5 758.5  C 164.5 755.42  166.92 753  170 753  Z " stroke-width="1" stroke="#797979" fill="none" />
  <path d="M 170 761.5  C 168.32 761.5  167 760.18  167 758.5  C 167 756.82  168.32 755.5  170 755.5  C 171.68 755.5  173 756.82  173 758.5  C 173 760.18  171.68 761.5  170 761.5  " fill-rule="nonzero" fill="#797979" stroke="none" />
</svg>