<?xml version="1.0" encoding="utf-8"?>
<svg version="1.1" xmlns:xlink="http://www.w3.org/1999/xlink" width="12px" height="12px" viewBox="166 1785.5  12 12" xmlns="http://www.w3.org/2000/svg">
  <path d="M 172 1785.5  C 175.36 1785.5  178 1788.14  178 1791.5  C 178 1794.86  175.36 1797.5  172 1797.5  C 168.64 1797.5  166 1794.86  166 1791.5  C 166 1788.14  168.64 1785.5  172 1785.5  Z " fill-rule="nonzero" fill="#ffffff" stroke="none" />
  <path d="M 172 1786  C 175.08 1786  177.5 1788.42  177.5 1791.5  C 177.5 1794.58  175.08 1797  172 1797  C 168.92 1797  166.5 1794.58  166.5 1791.5  C 166.5 1788.42  168.92 1786  172 1786  Z " stroke-width="1" stroke="#797979" fill="none" />
  <path d="M 172 1794.5  C 170.32 1794.5  169 1793.18  169 1791.5  C 169 1789.82  170.32 1788.5  172 1788.5  C 173.68 1788.5  175 1789.82  175 1791.5  C 175 1793.18  173.68 1794.5  172 1794.5  " fill-rule="nonzero" fill="#797979" stroke="none" />
</svg>