<?xml version="1.0" encoding="utf-8"?>
<svg version="1.1" xmlns:xlink="http://www.w3.org/1999/xlink" width="12px" height="12px" viewBox="255 1346.5  12 12" xmlns="http://www.w3.org/2000/svg">
  <path d="M 261 1346.5  C 264.36 1346.5  267 1349.14  267 1352.5  C 267 1355.86  264.36 1358.5  261 1358.5  C 257.64 1358.5  255 1355.86  255 1352.5  C 255 1349.14  257.64 1346.5  261 1346.5  Z " fill-rule="nonzero" fill="#ffffff" stroke="none" />
  <path d="M 261 1347  C 264.08 1347  266.5 1349.42  266.5 1352.5  C 266.5 1355.58  264.08 1358  261 1358  C 257.92 1358  255.5 1355.58  255.5 1352.5  C 255.5 1349.42  257.92 1347  261 1347  Z " stroke-width="1" stroke="#797979" fill="none" />
  <path d="M 261 1355.5  C 259.32 1355.5  258 1354.18  258 1352.5  C 258 1350.82  259.32 1349.5  261 1349.5  C 262.68 1349.5  264 1350.82  264 1352.5  C 264 1354.18  262.68 1355.5  261 1355.5  " fill-rule="nonzero" fill="#797979" stroke="none" />
</svg>