<?xml version="1.0" encoding="utf-8"?>
<svg version="1.1" xmlns:xlink="http://www.w3.org/1999/xlink" width="12px" height="12px" viewBox="166 750.5  12 12" xmlns="http://www.w3.org/2000/svg">
  <path d="M 172 750.5  C 175.36 750.5  178 753.14  178 756.5  C 178 759.86  175.36 762.5  172 762.5  C 168.64 762.5  166 759.86  166 756.5  C 166 753.14  168.64 750.5  172 750.5  Z " fill-rule="nonzero" fill="#ffffff" stroke="none" />
  <path d="M 172 751  C 175.08 751  177.5 753.42  177.5 756.5  C 177.5 759.58  175.08 762  172 762  C 168.92 762  166.5 759.58  166.5 756.5  C 166.5 753.42  168.92 751  172 751  Z " stroke-width="1" stroke="#797979" fill="none" />
  <path d="M 172 759.5  C 170.32 759.5  169 758.18  169 756.5  C 169 754.82  170.32 753.5  172 753.5  C 173.68 753.5  175 754.82  175 756.5  C 175 758.18  173.68 759.5  172 759.5  " fill-rule="nonzero" fill="#797979" stroke="none" />
</svg>