<?xml version="1.0" encoding="utf-8"?>
<svg version="1.1" xmlns:xlink="http://www.w3.org/1999/xlink" width="12px" height="12px" viewBox="166 343.5  12 12" xmlns="http://www.w3.org/2000/svg">
  <path d="M 172 343.5  C 175.36 343.5  178 346.14  178 349.5  C 178 352.86  175.36 355.5  172 355.5  C 168.64 355.5  166 352.86  166 349.5  C 166 346.14  168.64 343.5  172 343.5  Z " fill-rule="nonzero" fill="#ffffff" stroke="none" />
  <path d="M 172 344  C 175.08 344  177.5 346.42  177.5 349.5  C 177.5 352.58  175.08 355  172 355  C 168.92 355  166.5 352.58  166.5 349.5  C 166.5 346.42  168.92 344  172 344  Z " stroke-width="1" stroke="#797979" fill="none" />
  <path d="M 172 352.5  C 170.32 352.5  169 351.18  169 349.5  C 169 347.82  170.32 346.5  172 346.5  C 173.68 346.5  175 347.82  175 349.5  C 175 351.18  173.68 352.5  172 352.5  " fill-rule="nonzero" fill="#797979" stroke="none" />
</svg>