<?xml version="1.0" encoding="utf-8"?>
<svg version="1.1" xmlns:xlink="http://www.w3.org/1999/xlink" width="12px" height="12px" viewBox="161 679.5  12 12" xmlns="http://www.w3.org/2000/svg">
  <path d="M 167 679.5  C 170.36 679.5  173 682.14  173 685.5  C 173 688.86  170.36 691.5  167 691.5  C 163.64 691.5  161 688.86  161 685.5  C 161 682.14  163.64 679.5  167 679.5  Z " fill-rule="nonzero" fill="#ffffff" stroke="none" />
  <path d="M 167 680  C 170.08 680  172.5 682.42  172.5 685.5  C 172.5 688.58  170.08 691  167 691  C 163.92 691  161.5 688.58  161.5 685.5  C 161.5 682.42  163.92 680  167 680  Z " stroke-width="1" stroke="#797979" fill="none" />
  <path d="M 167 688.5  C 165.32 688.5  164 687.18  164 685.5  C 164 683.82  165.32 682.5  167 682.5  C 168.68 682.5  170 683.82  170 685.5  C 170 687.18  168.68 688.5  167 688.5  " fill-rule="nonzero" fill="#797979" stroke="none" />
</svg>