<?xml version="1.0" encoding="utf-8"?>
<svg version="1.1" xmlns:xlink="http://www.w3.org/1999/xlink" width="12px" height="12px" viewBox="255 343.5  12 12" xmlns="http://www.w3.org/2000/svg">
  <path d="M 261 343.5  C 264.36 343.5  267 346.14  267 349.5  C 267 352.86  264.36 355.5  261 355.5  C 257.64 355.5  255 352.86  255 349.5  C 255 346.14  257.64 343.5  261 343.5  Z " fill-rule="nonzero" fill="#f0f0f0" stroke="none" />
  <path d="M 261 344  C 264.08 344  266.5 346.42  266.5 349.5  C 266.5 352.58  264.08 355  261 355  C 257.92 355  255.5 352.58  255.5 349.5  C 255.5 346.42  257.92 344  261 344  Z " stroke-width="1" stroke="#797979" fill="none" />
  <path d="M 261 352.5  C 259.32 352.5  258 351.18  258 349.5  C 258 347.82  259.32 346.5  261 346.5  C 262.68 346.5  264 347.82  264 349.5  C 264 351.18  262.68 352.5  261 352.5  " fill-rule="nonzero" fill="#797979" stroke="none" />
</svg>