<?xml version="1.0" encoding="utf-8"?>
<svg version="1.1" xmlns:xlink="http://www.w3.org/1999/xlink" width="20px" height="20px" xmlns="http://www.w3.org/2000/svg">
  <g transform="matrix(1 0 0 1 -1333 -11 )">
    <path d="M 12.8571428571429 15.6640625  C 12.953869047619 15.6640625  13.0394345238095 15.6206597222222  13.1138392857143 15.5338541666667  L 14.7433035714286 13.6328125  C 14.8177083333333 13.5460069444444  14.8549107142857 13.4461805555556  14.8549107142857 13.3333333333333  C 14.8549107142857 13.2204861111111  14.8177083333333 13.1206597222222  14.7433035714286 13.0338541666667  L 12.1428571428571 10  L 14.7433035714286 6.96614583333333  C 14.8177083333333 6.87934027777778  14.8549107142857 6.77951388888889  14.8549107142857 6.66666666666667  C 14.8549107142857 6.55381944444444  14.8177083333333 6.45399305555555  14.7433035714286 6.3671875  L 13.1138392857143 4.46614583333333  C 13.0394345238095 4.37934027777778  12.953869047619 4.3359375  12.8571428571429 4.3359375  C 12.7604166666667 4.3359375  12.6748511904762 4.37934027777778  12.6004464285714 4.46614583333333  L 10 7.5  L 7.39955357142857 4.46614583333333  C 7.32514880952381 4.37934027777778  7.23958333333333 4.3359375  7.14285714285714 4.3359375  C 7.04613095238095 4.3359375  6.96056547619048 4.37934027777778  6.88616071428571 4.46614583333333  L 5.25669642857143 6.3671875  C 5.18229166666667 6.45399305555555  5.14508928571429 6.55381944444444  5.14508928571429 6.66666666666667  C 5.14508928571429 6.77951388888889  5.18229166666667 6.87934027777778  5.25669642857143 6.96614583333333  L 7.85714285714286 10  L 5.25669642857143 13.0338541666667  C 5.18229166666667 13.1206597222222  5.14508928571429 13.2204861111111  5.14508928571429 13.3333333333333  C 5.14508928571429 13.4461805555556  5.18229166666667 13.5460069444444  5.25669642857143 13.6328125  L 6.88616071428571 15.5338541666667  C 6.96056547619048 15.6206597222222  7.04613095238095 15.6640625  7.14285714285714 15.6640625  C 7.23958333333333 15.6640625  7.32514880952381 15.6206597222222  7.39955357142857 15.5338541666667  L 10 12.5  L 12.6004464285714 15.5338541666667  C 12.6748511904762 15.6206597222222  12.7604166666667 15.6640625  12.8571428571429 15.6640625  Z M 19.4754464285714 0.611979166666667  C 19.8251488095238 1.01996527777778  20 1.51041666666667  20 2.08333333333333  L 20 17.9166666666667  C 20 18.4895833333333  19.8251488095238 18.9800347222222  19.4754464285714 19.3880208333333  C 19.1257440476191 19.7960069444444  18.7053571428571 20  18.2142857142857 20  L 1.78571428571429 20  C 1.29464285714286 20  0.874255952380952 19.7960069444444  0.524553571428571 19.3880208333333  C 0.17485119047619 18.9800347222222  0 18.4895833333333  0 17.9166666666667  L 0 2.08333333333333  C 0 1.51041666666667  0.17485119047619 1.01996527777778  0.524553571428571 0.611979166666667  C 0.874255952380952 0.203993055555554  1.29464285714286 0  1.78571428571429 0  L 18.2142857142857 0  C 18.7053571428571 0  19.1257440476191 0.203993055555554  19.4754464285714 0.611979166666667  Z " fill-rule="nonzero" fill="#000000" stroke="none" transform="matrix(1 0 0 1 1333 11 )" />
  </g>
</svg>