<?xml version="1.0" encoding="utf-8"?>
<svg version="1.1" xmlns:xlink="http://www.w3.org/1999/xlink" width="12px" height="12px" viewBox="166 333.5  12 12" xmlns="http://www.w3.org/2000/svg">
  <path d="M 172 333.5  C 175.36 333.5  178 336.14  178 339.5  C 178 342.86  175.36 345.5  172 345.5  C 168.64 345.5  166 342.86  166 339.5  C 166 336.14  168.64 333.5  172 333.5  Z " fill-rule="nonzero" fill="#ffffff" stroke="none" />
  <path d="M 172 334  C 175.08 334  177.5 336.42  177.5 339.5  C 177.5 342.58  175.08 345  172 345  C 168.92 345  166.5 342.58  166.5 339.5  C 166.5 336.42  168.92 334  172 334  Z " stroke-width="1" stroke="#797979" fill="none" />
  <path d="M 172 342.5  C 170.32 342.5  169 341.18  169 339.5  C 169 337.82  170.32 336.5  172 336.5  C 173.68 336.5  175 337.82  175 339.5  C 175 341.18  173.68 342.5  172 342.5  " fill-rule="nonzero" fill="#797979" stroke="none" />
</svg>