<?xml version="1.0" encoding="utf-8"?>
<svg version="1.1" xmlns:xlink="http://www.w3.org/1999/xlink" width="12px" height="12px" viewBox="162 641.5  12 12" xmlns="http://www.w3.org/2000/svg">
  <path d="M 168 641.5  C 171.36 641.5  174 644.14  174 647.5  C 174 650.86  171.36 653.5  168 653.5  C 164.64 653.5  162 650.86  162 647.5  C 162 644.14  164.64 641.5  168 641.5  Z " fill-rule="nonzero" fill="#ffffff" stroke="none" />
  <path d="M 168 642  C 171.08 642  173.5 644.42  173.5 647.5  C 173.5 650.58  171.08 653  168 653  C 164.92 653  162.5 650.58  162.5 647.5  C 162.5 644.42  164.92 642  168 642  Z " stroke-width="1" stroke="#797979" fill="none" />
  <path d="M 168 650.5  C 166.32 650.5  165 649.18  165 647.5  C 165 645.82  166.32 644.5  168 644.5  C 169.68 644.5  171 645.82  171 647.5  C 171 649.18  169.68 650.5  168 650.5  " fill-rule="nonzero" fill="#797979" stroke="none" />
</svg>