<?xml version="1.0" encoding="utf-8"?>
<svg version="1.1" xmlns:xlink="http://www.w3.org/1999/xlink" width="12px" height="12px" viewBox="264 1681.5  12 12" xmlns="http://www.w3.org/2000/svg">
  <path d="M 270 1681.5  C 273.36 1681.5  276 1684.14  276 1687.5  C 276 1690.86  273.36 1693.5  270 1693.5  C 266.64 1693.5  264 1690.86  264 1687.5  C 264 1684.14  266.64 1681.5  270 1681.5  Z " fill-rule="nonzero" fill="#ffffff" stroke="none" />
  <path d="M 270 1682  C 273.08 1682  275.5 1684.42  275.5 1687.5  C 275.5 1690.58  273.08 1693  270 1693  C 266.92 1693  264.5 1690.58  264.5 1687.5  C 264.5 1684.42  266.92 1682  270 1682  Z " stroke-width="1" stroke="#797979" fill="none" />
  <path d="M 270 1690.5  C 268.32 1690.5  267 1689.18  267 1687.5  C 267 1685.82  268.32 1684.5  270 1684.5  C 271.68 1684.5  273 1685.82  273 1687.5  C 273 1689.18  271.68 1690.5  270 1690.5  " fill-rule="nonzero" fill="#797979" stroke="none" />
</svg>