<?xml version="1.0" encoding="utf-8"?>
<svg version="1.1" xmlns:xlink="http://www.w3.org/1999/xlink" width="200px" height="50px" xmlns="http://www.w3.org/2000/svg">
  <g transform="matrix(1 0 0 1 -283 -999 )">
    <path d="M 283.5 1028.66614906832  C 283.5 1028.66614906832  283.5 1004  283.5 1004  C 283.5 1001.51471862576  285.514718625761 999.5  288 999.5  C 288 999.5  478 999.5  478 999.5  C 480.485281374239 999.5  482.5 1001.51471862576  482.5 1004  C 482.5 1004  482.5 1028.66614906832  482.5 1028.66614906832  C 482.5 1031.15143044256  480.485281374239 1033.16614906832  478 1033.16614906832  C 478 1033.16614906832  396.34974438379 1033.16614906832  396.34974438379 1033.16614906832  C 396.34974438379 1033.16614906832  383.502247100114 1047.00064971787  383.502247100114 1047.00064971787  C 383.502247100114 1047.00064971787  372.724145352064 1033.16614906832  372.724145352064 1033.16614906832  C 372.724145352064 1033.16614906832  288 1033.16614906832  288 1033.16614906832  C 285.514718625761 1033.16614906832  283.5 1031.15143044256  283.5 1028.66614906832  Z " fill-rule="nonzero" fill="#ffffff" stroke="none" />
    <path d="M 283 1028.66614906832  C 283 1028.66614906832  283 1004  283 1004  C 283 1001.23857625085  285.238576250846 999  288 999  C 288 999  478 999  478 999  C 480.761423749154 999  483 1001.23857625085  483 1004  C 483 1004  483 1028.66614906832  483 1028.66614906832  C 483 1031.42757281748  480.761423749154 1033.66614906832  478 1033.66614906832  C 478 1033.66614906832  396.567765567766 1033.66614906832  396.567765567766 1033.66614906832  C 396.567765567766 1033.66614906832  383.468864468864 1047.77136752137  383.468864468864 1047.77136752137  C 383.468864468864 1047.77136752137  372.479853479853 1033.66614906832  372.479853479853 1033.66614906832  C 372.479853479853 1033.66614906832  288 1033.66614906832  288 1033.66614906832  C 285.238576250846 1033.66614906832  283 1031.42757281748  283 1028.66614906832  Z M 284 1028.66614906832  C 284 1030.87528806765  285.790861000677 1032.66614906832  288 1032.66614906832  C 288 1032.66614906832  372.968437224273 1032.66614906832  372.968437224273 1032.66614906832  C 372.968437224273 1032.66614906832  383.535629731363 1046.22993191438  383.535629731363 1046.22993191438  C 383.535629731363 1046.22993191438  396.131723199814 1032.66614906832  396.131723199814 1032.66614906832  C 396.131723199814 1032.66614906832  478 1032.66614906832  478 1032.66614906832  C 480.209138999323 1032.66614906832  482 1030.87528806765  482 1028.66614906832  C 482 1028.66614906832  482 1004  482 1004  C 482 1001.79086100068  480.209138999323 1000  478 1000  C 478 1000  288 1000  288 1000  C 285.790861000677 1000  284 1001.79086100068  284 1004  C 284 1004  284 1028.66614906832  284 1028.66614906832  Z " fill-rule="nonzero" fill="#d7d7d7" stroke="none" />
  </g>
</svg>