<?xml version="1.0" encoding="utf-8"?>
<svg version="1.1" xmlns:xlink="http://www.w3.org/1999/xlink" width="83px" height="20px" xmlns="http://www.w3.org/2000/svg">
  <defs>
    <mask fill="white" id="clip21">
      <path d="M 0 18  L 0 2  C 0 0.879999999999995  0.961052631578942 0  2.18421052631579 0  L 45.9543169722058 0  L 80.8157894736842 0  C 82.038947368421 0  83 0.879999999999995  83 2  L 83 18  C 83 19.12  82.038947368421 20  80.8157894736842 20  L 2.18421052631579 20  C 0.961052631578942 20  0 19.12  0 18  Z " fill-rule="evenodd" />
    </mask>
  </defs>
  <g transform="matrix(1 0 0 1 -365 -103 )">
    <path d="M 0 18  L 0 2  C 0 0.879999999999995  0.961052631578942 0  2.18421052631579 0  L 45.9543169722058 0  L 80.8157894736842 0  C 82.038947368421 0  83 0.879999999999995  83 2  L 83 18  C 83 19.12  82.038947368421 20  80.8157894736842 20  L 2.18421052631579 20  C 0.961052631578942 20  0 19.12  0 18  Z " fill-rule="nonzero" fill="#f2f2f2" stroke="none" transform="matrix(1 0 0 1 365 103 )" />
    <path d="M 0 18  L 0 2  C 0 0.879999999999995  0.961052631578942 0  2.18421052631579 0  L 45.9543169722058 0  L 80.8157894736842 0  C 82.038947368421 0  83 0.879999999999995  83 2  L 83 18  C 83 19.12  82.038947368421 20  80.8157894736842 20  L 2.18421052631579 20  C 0.961052631578942 20  0 19.12  0 18  Z " stroke-width="2" stroke="#797979" fill="none" transform="matrix(1 0 0 1 365 103 )" mask="url(#clip21)" />
  </g>
</svg>