<?xml version="1.0" encoding="utf-8"?>
<svg version="1.1" xmlns:xlink="http://www.w3.org/1999/xlink" width="234px" height="26px" xmlns="http://www.w3.org/2000/svg">
  <defs>
    <mask fill="white" id="clip8">
      <path d="M 0 24  L 0 2  C 0 0.879999999999995  0.880000000000109 0  2 0  L 19.5 0  L 232 0  C 233.12 0  234 0.879999999999995  234 2  L 234 24  C 234 25.12  233.12 26  232 26  L 2 26  C 0.880000000000109 26  0 25.12  0 24  Z " fill-rule="evenodd" />
    </mask>
  </defs>
  <g transform="matrix(1 0 0 1 -29 -107 )">
    <path d="M 0 24  L 0 2  C 0 0.879999999999995  0.880000000000109 0  2 0  L 19.5 0  L 232 0  C 233.12 0  234 0.879999999999995  234 2  L 234 24  C 234 25.12  233.12 26  232 26  L 2 26  C 0.880000000000109 26  0 25.12  0 24  Z " fill-rule="nonzero" fill="#fbfbfa" stroke="none" transform="matrix(1 0 0 1 29 107 )" />
    <path d="M 0 24  L 0 2  C 0 0.879999999999995  0.880000000000109 0  2 0  L 19.5 0  L 232 0  C 233.12 0  234 0.879999999999995  234 2  L 234 24  C 234 25.12  233.12 26  232 26  L 2 26  C 0.880000000000109 26  0 25.12  0 24  Z " stroke-width="2" stroke="#797979" fill="none" transform="matrix(1 0 0 1 29 107 )" mask="url(#clip8)" />
  </g>
</svg>