<?xml version="1.0" encoding="utf-8"?>
<svg version="1.1" xmlns:xlink="http://www.w3.org/1999/xlink" width="15px" height="15px" xmlns="http://www.w3.org/2000/svg">
  <g transform="matrix(1 0 0 1 -1855 -6 )">
    <path d="M 9.64285714285714 11.748046875  C 9.71540178571429 11.748046875  9.77957589285714 11.7154947916667  9.83537946428572 11.650390625  L 11.0574776785714 10.224609375  C 11.11328125 10.1595052083333  11.1411830357143 10.0846354166667  11.1411830357143 10  C 11.1411830357143 9.91536458333333  11.11328125 9.84049479166666  11.0574776785714 9.775390625  L 9.10714285714286 7.5  L 11.0574776785714 5.224609375  C 11.11328125 5.15950520833333  11.1411830357143 5.08463541666667  11.1411830357143 5  C 11.1411830357143 4.91536458333333  11.11328125 4.84049479166667  11.0574776785714 4.775390625  L 9.83537946428572 3.349609375  C 9.77957589285714 3.28450520833333  9.71540178571429 3.251953125  9.64285714285714 3.251953125  C 9.5703125 3.251953125  9.50613839285714 3.28450520833333  9.45033482142857 3.349609375  L 7.5 5.625  L 5.54966517857143 3.349609375  C 5.49386160714286 3.28450520833333  5.4296875 3.251953125  5.35714285714286 3.251953125  C 5.28459821428571 3.251953125  5.22042410714286 3.28450520833333  5.16462053571429 3.349609375  L 3.94252232142857 4.775390625  C 3.88671875 4.84049479166667  3.85881696428571 4.91536458333333  3.85881696428571 5  C 3.85881696428571 5.08463541666667  3.88671875 5.15950520833333  3.94252232142857 5.224609375  L 5.89285714285714 7.5  L 3.94252232142857 9.775390625  C 3.88671875 9.84049479166666  3.85881696428571 9.91536458333333  3.85881696428571 10  C 3.85881696428571 10.0846354166667  3.88671875 10.1595052083333  3.94252232142857 10.224609375  L 5.16462053571429 11.650390625  C 5.22042410714286 11.7154947916667  5.28459821428571 11.748046875  5.35714285714286 11.748046875  C 5.4296875 11.748046875  5.49386160714286 11.7154947916667  5.54966517857143 11.650390625  L 7.5 9.375  L 9.45033482142857 11.650390625  C 9.50613839285714 11.7154947916667  9.5703125 11.748046875  9.64285714285714 11.748046875  Z M 14.6065848214286 0.458984375000001  C 14.8688616071429 0.764973958333333  15 1.1328125  15 1.5625  L 15 13.4375  C 15 13.8671875  14.8688616071429 14.2350260416667  14.6065848214286 14.541015625  C 14.3443080357143 14.8470052083333  14.0290178571429 15  13.6607142857143 15  L 1.33928571428571 15  C 0.970982142857143 15  0.655691964285714 14.8470052083333  0.393415178571429 14.541015625  C 0.131138392857143 14.2350260416667  0 13.8671875  0 13.4375  L 0 1.5625  C 0 1.1328125  0.131138392857143 0.764973958333333  0.393415178571429 0.458984375000001  C 0.655691964285714 0.152994791666665  0.970982142857143 0  1.33928571428571 0  L 13.6607142857143 0  C 14.0290178571429 0  14.3443080357143 0.152994791666665  14.6065848214286 0.458984375000001  Z " fill-rule="nonzero" fill="#000000" stroke="none" transform="matrix(1 0 0 1 1855 6 )" />
  </g>
</svg>