<?xml version="1.0" encoding="utf-8"?>
<svg version="1.1" xmlns:xlink="http://www.w3.org/1999/xlink" width="53px" height="20px" xmlns="http://www.w3.org/2000/svg">
  <defs>
    <mask fill="white" id="clip13">
      <path d="M 0 18  L 0 2  C 0 0.879999999999995  0.613684210526313 0  1.39473684210526 0  L 29.3443228858663 0  L 51.6052631578947 0  C 52.3863157894737 0  53 0.879999999999995  53 2  L 53 18  C 53 19.12  52.3863157894737 20  51.6052631578947 20  L 1.39473684210526 20  C 0.613684210526313 20  0 19.12  0 18  Z " fill-rule="evenodd" />
    </mask>
  </defs>
  <g transform="matrix(1 0 0 1 -250 -103 )">
    <path d="M 0 18  L 0 2  C 0 0.879999999999995  0.613684210526313 0  1.39473684210526 0  L 29.3443228858663 0  L 51.6052631578947 0  C 52.3863157894737 0  53 0.879999999999995  53 2  L 53 18  C 53 19.12  52.3863157894737 20  51.6052631578947 20  L 1.39473684210526 20  C 0.613684210526313 20  0 19.12  0 18  Z " fill-rule="nonzero" fill="#f2f2f2" stroke="none" transform="matrix(1 0 0 1 250 103 )" />
    <path d="M 0 18  L 0 2  C 0 0.879999999999995  0.613684210526313 0  1.39473684210526 0  L 29.3443228858663 0  L 51.6052631578947 0  C 52.3863157894737 0  53 0.879999999999995  53 2  L 53 18  C 53 19.12  52.3863157894737 20  51.6052631578947 20  L 1.39473684210526 20  C 0.613684210526313 20  0 19.12  0 18  Z " stroke-width="2" stroke="#797979" fill="none" transform="matrix(1 0 0 1 250 103 )" mask="url(#clip13)" />
  </g>
</svg>