<?xml version="1.0" encoding="utf-8"?>
<svg version="1.1" xmlns:xlink="http://www.w3.org/1999/xlink" width="12px" height="12px" viewBox="1433 1901.5  12 12" xmlns="http://www.w3.org/2000/svg">
  <path d="M 1439 1901.5  C 1442.36 1901.5  1445 1904.14  1445 1907.5  C 1445 1910.86  1442.36 1913.5  1439 1913.5  C 1435.64 1913.5  1433 1910.86  1433 1907.5  C 1433 1904.14  1435.64 1901.5  1439 1901.5  Z " fill-rule="nonzero" fill="#ffffff" stroke="none" />
  <path d="M 1439 1902  C 1442.08 1902  1444.5 1904.42  1444.5 1907.5  C 1444.5 1910.58  1442.08 1913  1439 1913  C 1435.92 1913  1433.5 1910.58  1433.5 1907.5  C 1433.5 1904.42  1435.92 1902  1439 1902  Z " stroke-width="1" stroke="#797979" fill="none" />
  <path d="M 1439 1910.5  C 1437.32 1910.5  1436 1909.18  1436 1907.5  C 1436 1905.82  1437.32 1904.5  1439 1904.5  C 1440.68 1904.5  1442 1905.82  1442 1907.5  C 1442 1909.18  1440.68 1910.5  1439 1910.5  " fill-rule="nonzero" fill="#797979" stroke="none" />
</svg>